<svg id="print" xmlns="http://www.w3.org/2000/svg" width="25" height="25" viewBox="0 0 25 25">
  <path id="Контур_591" data-name="Контур 591" d="M21.338,6.3h-.684V3.662A3.666,3.666,0,0,0,16.992,0H8.008A3.666,3.666,0,0,0,4.346,3.662V6.3H3.662A3.666,3.666,0,0,0,0,9.961V15.82a3.666,3.666,0,0,0,3.662,3.662h.684V22.8a2.2,2.2,0,0,0,2.2,2.2H18.457a2.2,2.2,0,0,0,2.2-2.2v-3.32h.684A3.666,3.666,0,0,0,25,15.82V9.961A3.666,3.666,0,0,0,21.338,6.3ZM5.811,3.662a2.2,2.2,0,0,1,2.2-2.2h8.984a2.2,2.2,0,0,1,2.2,2.2V6.3H5.811ZM19.189,22.8a.733.733,0,0,1-.732.732H6.543a.733.733,0,0,1-.732-.732V15.576H19.189Zm4.346-6.982a2.2,2.2,0,0,1-2.2,2.2h-.684V15.576h.439a.732.732,0,0,0,0-1.465H3.906a.732.732,0,0,0,0,1.465h.439v2.441H3.662a2.2,2.2,0,0,1-2.2-2.2V9.961a2.2,2.2,0,0,1,2.2-2.2H21.338a2.2,2.2,0,0,1,2.2,2.2Z" fill="#fff"/>
  <path id="Контур_592" data-name="Контур 592" d="M205.639,353h-3.906a.732.732,0,0,0,0,1.465h3.906a.732.732,0,0,0,0-1.465Z" transform="translate(-191.186 -335.764)" fill="#fff"/>
  <path id="Контур_593" data-name="Контур 593" d="M205.639,417h-3.906a.732.732,0,1,0,0,1.465h3.906a.732.732,0,1,0,0-1.465Z" transform="translate(-191.186 -396.639)" fill="#fff"/>
  <path id="Контур_594" data-name="Контур 594" d="M68.076,193H65.732a.732.732,0,0,0,0,1.465h2.344a.732.732,0,0,0,0-1.465Z" transform="translate(-61.826 -183.576)" fill="#fff"/>
</svg>
