<svg xmlns="http://www.w3.org/2000/svg" width="14" height="12" viewBox="0 0 14 12">
  <g id="right-arrow" transform="translate(0 -41.346)">
    <g id="Сгруппировать_539" data-name="Сгруппировать 539" transform="translate(0 41.346)">
      <path id="Контур_588" data-name="Контур 588" d="M13.776,46.786,8.72,41.576a.753.753,0,0,0-1.084,0l-.459.473a.8.8,0,0,0-.224.558.812.812,0,0,0,.224.565l2.95,3.046H.756A.759.759,0,0,0,0,46.994v.669a.79.79,0,0,0,.756.811h9.4L7.178,51.536a.8.8,0,0,0,0,1.109l.459.472a.753.753,0,0,0,1.084,0l5.056-5.209a.813.813,0,0,0,0-1.121Z" transform="translate(0 -41.346)" fill="#fff"/>
    </g>
  </g>
</svg>
